<mxfile host="app.diagrams.net" agent="Mozilla/5.0 (X11; Ubuntu; Linux x86_64; rv:137.0) Gecko/20100101 Firefox/137.0" version="26.2.14" pages="6">
  <diagram id="C5RBs43oDa-KdzZeNtuy" name="ejercicio5Dia1.Diagrama">
    <mxGraphModel dx="2187" dy="795" grid="1" gridSize="10" guides="1" tooltips="1" connect="1" arrows="1" fold="1" page="1" pageScale="1" pageWidth="827" pageHeight="1169" math="0" shadow="0">
      <root>
        <mxCell id="WIyWlLk6GJQsqaUBKTNV-0" />
        <mxCell id="WIyWlLk6GJQsqaUBKTNV-1" parent="WIyWlLk6GJQsqaUBKTNV-0" />
        <mxCell id="g95LMs5YuK_6eCyxdE8W-4" value="" style="edgeStyle=orthogonalEdgeStyle;rounded=0;orthogonalLoop=1;jettySize=auto;html=1;" edge="1" parent="WIyWlLk6GJQsqaUBKTNV-1" source="g95LMs5YuK_6eCyxdE8W-0" target="g95LMs5YuK_6eCyxdE8W-3">
          <mxGeometry relative="1" as="geometry" />
        </mxCell>
        <mxCell id="g95LMs5YuK_6eCyxdE8W-0" value="inicio" style="ellipse;whiteSpace=wrap;html=1;" vertex="1" parent="WIyWlLk6GJQsqaUBKTNV-1">
          <mxGeometry x="230" width="120" height="80" as="geometry" />
        </mxCell>
        <mxCell id="g95LMs5YuK_6eCyxdE8W-6" style="edgeStyle=orthogonalEdgeStyle;rounded=0;orthogonalLoop=1;jettySize=auto;html=1;entryX=0.5;entryY=0;entryDx=0;entryDy=0;" edge="1" parent="WIyWlLk6GJQsqaUBKTNV-1" source="g95LMs5YuK_6eCyxdE8W-3" target="g95LMs5YuK_6eCyxdE8W-5">
          <mxGeometry relative="1" as="geometry" />
        </mxCell>
        <mxCell id="g95LMs5YuK_6eCyxdE8W-3" value="total cuenta" style="shape=parallelogram;perimeter=parallelogramPerimeter;whiteSpace=wrap;html=1;fixedSize=1;" vertex="1" parent="WIyWlLk6GJQsqaUBKTNV-1">
          <mxGeometry x="240" y="160" width="120" height="60" as="geometry" />
        </mxCell>
        <mxCell id="g95LMs5YuK_6eCyxdE8W-9" style="edgeStyle=orthogonalEdgeStyle;rounded=0;orthogonalLoop=1;jettySize=auto;html=1;entryX=0.5;entryY=0;entryDx=0;entryDy=0;" edge="1" parent="WIyWlLk6GJQsqaUBKTNV-1" source="g95LMs5YuK_6eCyxdE8W-5" target="g95LMs5YuK_6eCyxdE8W-8">
          <mxGeometry relative="1" as="geometry" />
        </mxCell>
        <mxCell id="g95LMs5YuK_6eCyxdE8W-5" value="que porcentaje de propina quiere dejar?" style="rhombus;whiteSpace=wrap;html=1;" vertex="1" parent="WIyWlLk6GJQsqaUBKTNV-1">
          <mxGeometry x="190" y="330" width="224" height="180" as="geometry" />
        </mxCell>
        <mxCell id="g95LMs5YuK_6eCyxdE8W-16" style="edgeStyle=orthogonalEdgeStyle;rounded=0;orthogonalLoop=1;jettySize=auto;html=1;" edge="1" parent="WIyWlLk6GJQsqaUBKTNV-1" source="g95LMs5YuK_6eCyxdE8W-8">
          <mxGeometry relative="1" as="geometry">
            <mxPoint x="325" y="840" as="targetPoint" />
          </mxGeometry>
        </mxCell>
        <mxCell id="g95LMs5YuK_6eCyxdE8W-17" style="edgeStyle=orthogonalEdgeStyle;rounded=0;orthogonalLoop=1;jettySize=auto;html=1;" edge="1" parent="WIyWlLk6GJQsqaUBKTNV-1" source="g95LMs5YuK_6eCyxdE8W-8">
          <mxGeometry relative="1" as="geometry">
            <mxPoint x="550" y="655" as="targetPoint" />
          </mxGeometry>
        </mxCell>
        <mxCell id="g95LMs5YuK_6eCyxdE8W-8" value="10%, 15%, 20" style="rhombus;whiteSpace=wrap;html=1;" vertex="1" parent="WIyWlLk6GJQsqaUBKTNV-1">
          <mxGeometry x="230" y="600" width="190" height="110" as="geometry" />
        </mxCell>
        <mxCell id="g95LMs5YuK_6eCyxdE8W-10" value="20%" style="rounded=0;whiteSpace=wrap;html=1;" vertex="1" parent="WIyWlLk6GJQsqaUBKTNV-1">
          <mxGeometry x="560" y="620" width="120" height="60" as="geometry" />
        </mxCell>
        <mxCell id="g95LMs5YuK_6eCyxdE8W-56" style="edgeStyle=orthogonalEdgeStyle;rounded=0;orthogonalLoop=1;jettySize=auto;html=1;" edge="1" parent="WIyWlLk6GJQsqaUBKTNV-1" source="g95LMs5YuK_6eCyxdE8W-13">
          <mxGeometry relative="1" as="geometry">
            <mxPoint x="220" y="970" as="targetPoint" />
          </mxGeometry>
        </mxCell>
        <mxCell id="g95LMs5YuK_6eCyxdE8W-13" value="15%" style="rounded=0;whiteSpace=wrap;html=1;" vertex="1" parent="WIyWlLk6GJQsqaUBKTNV-1">
          <mxGeometry x="265" y="850" width="120" height="60" as="geometry" />
        </mxCell>
        <mxCell id="g95LMs5YuK_6eCyxdE8W-19" style="edgeStyle=orthogonalEdgeStyle;rounded=0;orthogonalLoop=1;jettySize=auto;html=1;" edge="1" parent="WIyWlLk6GJQsqaUBKTNV-1" source="g95LMs5YuK_6eCyxdE8W-14">
          <mxGeometry relative="1" as="geometry">
            <mxPoint x="-210" y="830" as="targetPoint" />
          </mxGeometry>
        </mxCell>
        <mxCell id="g95LMs5YuK_6eCyxdE8W-29" style="edgeStyle=orthogonalEdgeStyle;rounded=0;orthogonalLoop=1;jettySize=auto;html=1;" edge="1" parent="WIyWlLk6GJQsqaUBKTNV-1" source="g95LMs5YuK_6eCyxdE8W-14">
          <mxGeometry relative="1" as="geometry">
            <mxPoint x="-10" y="930" as="targetPoint" />
          </mxGeometry>
        </mxCell>
        <mxCell id="g95LMs5YuK_6eCyxdE8W-14" value="10%" style="rounded=0;whiteSpace=wrap;html=1;" vertex="1" parent="WIyWlLk6GJQsqaUBKTNV-1">
          <mxGeometry x="-70" y="625" width="120" height="60" as="geometry" />
        </mxCell>
        <mxCell id="g95LMs5YuK_6eCyxdE8W-15" style="edgeStyle=orthogonalEdgeStyle;rounded=0;orthogonalLoop=1;jettySize=auto;html=1;entryX=1.083;entryY=0.5;entryDx=0;entryDy=0;entryPerimeter=0;" edge="1" parent="WIyWlLk6GJQsqaUBKTNV-1" source="g95LMs5YuK_6eCyxdE8W-8" target="g95LMs5YuK_6eCyxdE8W-14">
          <mxGeometry relative="1" as="geometry" />
        </mxCell>
        <mxCell id="g95LMs5YuK_6eCyxdE8W-26" style="edgeStyle=orthogonalEdgeStyle;rounded=0;orthogonalLoop=1;jettySize=auto;html=1;" edge="1" parent="WIyWlLk6GJQsqaUBKTNV-1" source="g95LMs5YuK_6eCyxdE8W-18">
          <mxGeometry relative="1" as="geometry">
            <mxPoint x="-140" y="1080" as="targetPoint" />
          </mxGeometry>
        </mxCell>
        <mxCell id="g95LMs5YuK_6eCyxdE8W-18" value="propina = cuenta * propina/100" style="shape=parallelogram;perimeter=parallelogramPerimeter;whiteSpace=wrap;html=1;fixedSize=1;" vertex="1" parent="WIyWlLk6GJQsqaUBKTNV-1">
          <mxGeometry x="-321" y="835" width="240" height="90" as="geometry" />
        </mxCell>
        <mxCell id="g95LMs5YuK_6eCyxdE8W-38" value="" style="edgeStyle=orthogonalEdgeStyle;rounded=0;orthogonalLoop=1;jettySize=auto;html=1;" edge="1" parent="WIyWlLk6GJQsqaUBKTNV-1" source="g95LMs5YuK_6eCyxdE8W-20" target="g95LMs5YuK_6eCyxdE8W-36">
          <mxGeometry relative="1" as="geometry" />
        </mxCell>
        <mxCell id="g95LMs5YuK_6eCyxdE8W-20" value="propina = cuenta * propina/100" style="shape=parallelogram;perimeter=parallelogramPerimeter;whiteSpace=wrap;html=1;fixedSize=1;" vertex="1" parent="WIyWlLk6GJQsqaUBKTNV-1">
          <mxGeometry x="220" y="1020" width="250" height="110" as="geometry" />
        </mxCell>
        <mxCell id="g95LMs5YuK_6eCyxdE8W-21" value="propina = cuenta * propina/100" style="shape=parallelogram;perimeter=parallelogramPerimeter;whiteSpace=wrap;html=1;fixedSize=1;" vertex="1" parent="WIyWlLk6GJQsqaUBKTNV-1">
          <mxGeometry x="580" y="850" width="200" height="110" as="geometry" />
        </mxCell>
        <mxCell id="g95LMs5YuK_6eCyxdE8W-22" style="edgeStyle=orthogonalEdgeStyle;rounded=0;orthogonalLoop=1;jettySize=auto;html=1;entryX=0.592;entryY=0.017;entryDx=0;entryDy=0;entryPerimeter=0;" edge="1" parent="WIyWlLk6GJQsqaUBKTNV-1" source="g95LMs5YuK_6eCyxdE8W-10" target="g95LMs5YuK_6eCyxdE8W-21">
          <mxGeometry relative="1" as="geometry" />
        </mxCell>
        <mxCell id="g95LMs5YuK_6eCyxdE8W-23" style="edgeStyle=orthogonalEdgeStyle;rounded=0;orthogonalLoop=1;jettySize=auto;html=1;entryX=0.4;entryY=-0.033;entryDx=0;entryDy=0;entryPerimeter=0;" edge="1" parent="WIyWlLk6GJQsqaUBKTNV-1" source="g95LMs5YuK_6eCyxdE8W-13" target="g95LMs5YuK_6eCyxdE8W-20">
          <mxGeometry relative="1" as="geometry" />
        </mxCell>
        <mxCell id="g95LMs5YuK_6eCyxdE8W-24" value="yes" style="text;html=1;align=center;verticalAlign=middle;resizable=0;points=[];autosize=1;strokeColor=none;fillColor=none;" vertex="1" parent="WIyWlLk6GJQsqaUBKTNV-1">
          <mxGeometry x="-190" y="740" width="40" height="30" as="geometry" />
        </mxCell>
        <mxCell id="g95LMs5YuK_6eCyxdE8W-25" value="fin" style="ellipse;whiteSpace=wrap;html=1;" vertex="1" parent="WIyWlLk6GJQsqaUBKTNV-1">
          <mxGeometry x="130" y="1490" width="180" height="170" as="geometry" />
        </mxCell>
        <mxCell id="g95LMs5YuK_6eCyxdE8W-32" style="edgeStyle=orthogonalEdgeStyle;rounded=0;orthogonalLoop=1;jettySize=auto;html=1;entryX=0.5;entryY=0;entryDx=0;entryDy=0;" edge="1" parent="WIyWlLk6GJQsqaUBKTNV-1" source="g95LMs5YuK_6eCyxdE8W-27" target="g95LMs5YuK_6eCyxdE8W-31">
          <mxGeometry relative="1" as="geometry" />
        </mxCell>
        <mxCell id="g95LMs5YuK_6eCyxdE8W-27" value="mostrar resultado" style="rounded=0;whiteSpace=wrap;html=1;" vertex="1" parent="WIyWlLk6GJQsqaUBKTNV-1">
          <mxGeometry x="-201" y="1080" width="120" height="60" as="geometry" />
        </mxCell>
        <mxCell id="g95LMs5YuK_6eCyxdE8W-35" style="edgeStyle=orthogonalEdgeStyle;rounded=0;orthogonalLoop=1;jettySize=auto;html=1;entryX=0.5;entryY=0;entryDx=0;entryDy=0;" edge="1" parent="WIyWlLk6GJQsqaUBKTNV-1" source="g95LMs5YuK_6eCyxdE8W-30" target="g95LMs5YuK_6eCyxdE8W-25">
          <mxGeometry relative="1" as="geometry">
            <mxPoint x="160" y="1220" as="targetPoint" />
          </mxGeometry>
        </mxCell>
        <mxCell id="g95LMs5YuK_6eCyxdE8W-30" value="sin propina" style="shape=parallelogram;perimeter=parallelogramPerimeter;whiteSpace=wrap;html=1;fixedSize=1;" vertex="1" parent="WIyWlLk6GJQsqaUBKTNV-1">
          <mxGeometry x="-80" y="940" width="140" height="60" as="geometry" />
        </mxCell>
        <mxCell id="g95LMs5YuK_6eCyxdE8W-33" style="edgeStyle=orthogonalEdgeStyle;rounded=0;orthogonalLoop=1;jettySize=auto;html=1;entryX=0;entryY=0.325;entryDx=0;entryDy=0;entryPerimeter=0;" edge="1" parent="WIyWlLk6GJQsqaUBKTNV-1" source="g95LMs5YuK_6eCyxdE8W-31" target="g95LMs5YuK_6eCyxdE8W-25">
          <mxGeometry relative="1" as="geometry">
            <mxPoint x="130" y="1270" as="targetPoint" />
          </mxGeometry>
        </mxCell>
        <mxCell id="g95LMs5YuK_6eCyxdE8W-31" value="imprimir resultado" style="rounded=0;whiteSpace=wrap;html=1;" vertex="1" parent="WIyWlLk6GJQsqaUBKTNV-1">
          <mxGeometry x="-170" y="1210" width="120" height="60" as="geometry" />
        </mxCell>
        <mxCell id="g95LMs5YuK_6eCyxdE8W-34" value="noi" style="text;html=1;align=center;verticalAlign=middle;resizable=0;points=[];autosize=1;strokeColor=none;fillColor=none;" vertex="1" parent="WIyWlLk6GJQsqaUBKTNV-1">
          <mxGeometry x="-9" y="788" width="40" height="30" as="geometry" />
        </mxCell>
        <mxCell id="g95LMs5YuK_6eCyxdE8W-40" value="" style="edgeStyle=orthogonalEdgeStyle;rounded=0;orthogonalLoop=1;jettySize=auto;html=1;" edge="1" parent="WIyWlLk6GJQsqaUBKTNV-1" source="g95LMs5YuK_6eCyxdE8W-36" target="g95LMs5YuK_6eCyxdE8W-39">
          <mxGeometry relative="1" as="geometry" />
        </mxCell>
        <mxCell id="g95LMs5YuK_6eCyxdE8W-36" value="mostrar resultado" style="rounded=0;whiteSpace=wrap;html=1;" vertex="1" parent="WIyWlLk6GJQsqaUBKTNV-1">
          <mxGeometry x="285" y="1200" width="120" height="60" as="geometry" />
        </mxCell>
        <mxCell id="g95LMs5YuK_6eCyxdE8W-52" style="edgeStyle=orthogonalEdgeStyle;rounded=0;orthogonalLoop=1;jettySize=auto;html=1;" edge="1" parent="WIyWlLk6GJQsqaUBKTNV-1" source="g95LMs5YuK_6eCyxdE8W-39" target="g95LMs5YuK_6eCyxdE8W-25">
          <mxGeometry relative="1" as="geometry" />
        </mxCell>
        <mxCell id="g95LMs5YuK_6eCyxdE8W-39" value="imprimir resultado" style="rounded=0;whiteSpace=wrap;html=1;" vertex="1" parent="WIyWlLk6GJQsqaUBKTNV-1">
          <mxGeometry x="280" y="1310" width="120" height="60" as="geometry" />
        </mxCell>
        <mxCell id="g95LMs5YuK_6eCyxdE8W-44" value="" style="edgeStyle=orthogonalEdgeStyle;rounded=0;orthogonalLoop=1;jettySize=auto;html=1;" edge="1" parent="WIyWlLk6GJQsqaUBKTNV-1" target="g95LMs5YuK_6eCyxdE8W-46">
          <mxGeometry relative="1" as="geometry">
            <mxPoint x="682.5" y="955" as="sourcePoint" />
          </mxGeometry>
        </mxCell>
        <mxCell id="g95LMs5YuK_6eCyxdE8W-45" value="" style="edgeStyle=orthogonalEdgeStyle;rounded=0;orthogonalLoop=1;jettySize=auto;html=1;" edge="1" parent="WIyWlLk6GJQsqaUBKTNV-1" source="g95LMs5YuK_6eCyxdE8W-46" target="g95LMs5YuK_6eCyxdE8W-47">
          <mxGeometry relative="1" as="geometry" />
        </mxCell>
        <mxCell id="g95LMs5YuK_6eCyxdE8W-46" value="mostrar resultado" style="rounded=0;whiteSpace=wrap;html=1;" vertex="1" parent="WIyWlLk6GJQsqaUBKTNV-1">
          <mxGeometry x="622.5" y="1025" width="120" height="60" as="geometry" />
        </mxCell>
        <mxCell id="g95LMs5YuK_6eCyxdE8W-51" style="edgeStyle=orthogonalEdgeStyle;rounded=0;orthogonalLoop=1;jettySize=auto;html=1;entryX=1;entryY=0.5;entryDx=0;entryDy=0;" edge="1" parent="WIyWlLk6GJQsqaUBKTNV-1" source="g95LMs5YuK_6eCyxdE8W-47" target="g95LMs5YuK_6eCyxdE8W-25">
          <mxGeometry relative="1" as="geometry" />
        </mxCell>
        <mxCell id="g95LMs5YuK_6eCyxdE8W-47" value="imprimir resultado" style="rounded=0;whiteSpace=wrap;html=1;" vertex="1" parent="WIyWlLk6GJQsqaUBKTNV-1">
          <mxGeometry x="624.5" y="1140" width="120" height="60" as="geometry" />
        </mxCell>
        <mxCell id="g95LMs5YuK_6eCyxdE8W-55" value="no" style="text;html=1;align=center;verticalAlign=middle;resizable=0;points=[];autosize=1;strokeColor=none;fillColor=none;" vertex="1" parent="WIyWlLk6GJQsqaUBKTNV-1">
          <mxGeometry x="171" y="858" width="40" height="30" as="geometry" />
        </mxCell>
        <mxCell id="g95LMs5YuK_6eCyxdE8W-58" value="no" style="text;html=1;align=center;verticalAlign=middle;resizable=0;points=[];autosize=1;strokeColor=none;fillColor=none;" vertex="1" parent="WIyWlLk6GJQsqaUBKTNV-1">
          <mxGeometry x="711" y="608" width="40" height="30" as="geometry" />
        </mxCell>
        <mxCell id="g95LMs5YuK_6eCyxdE8W-61" value="" style="endArrow=none;html=1;rounded=0;" edge="1" parent="WIyWlLk6GJQsqaUBKTNV-1">
          <mxGeometry width="50" height="50" relative="1" as="geometry">
            <mxPoint x="680" y="660" as="sourcePoint" />
            <mxPoint x="820" y="660" as="targetPoint" />
          </mxGeometry>
        </mxCell>
        <mxCell id="g95LMs5YuK_6eCyxdE8W-62" value="" style="endArrow=none;html=1;rounded=0;" edge="1" parent="WIyWlLk6GJQsqaUBKTNV-1">
          <mxGeometry width="50" height="50" relative="1" as="geometry">
            <mxPoint x="810" y="1560" as="sourcePoint" />
            <mxPoint x="820" y="660" as="targetPoint" />
          </mxGeometry>
        </mxCell>
        <mxCell id="g95LMs5YuK_6eCyxdE8W-64" value="" style="endArrow=none;html=1;rounded=0;" edge="1" parent="WIyWlLk6GJQsqaUBKTNV-1">
          <mxGeometry width="50" height="50" relative="1" as="geometry">
            <mxPoint x="462" y="1575" as="sourcePoint" />
            <mxPoint x="810" y="1560" as="targetPoint" />
          </mxGeometry>
        </mxCell>
      </root>
    </mxGraphModel>
  </diagram>
  <diagram id="o5Zkg-u37tzLCqIxFVHP" name="ejercicio6Dia1.Diagrama">
    <mxGraphModel dx="1360" dy="795" grid="1" gridSize="10" guides="1" tooltips="1" connect="1" arrows="1" fold="1" page="1" pageScale="1" pageWidth="827" pageHeight="1169" math="0" shadow="0">
      <root>
        <mxCell id="0" />
        <mxCell id="1" parent="0" />
        <mxCell id="tT4TNjP8U2fG3hzz_uTh-10" value="" style="edgeStyle=orthogonalEdgeStyle;rounded=0;orthogonalLoop=1;jettySize=auto;html=1;" edge="1" parent="1" source="tT4TNjP8U2fG3hzz_uTh-1" target="tT4TNjP8U2fG3hzz_uTh-2">
          <mxGeometry relative="1" as="geometry" />
        </mxCell>
        <mxCell id="tT4TNjP8U2fG3hzz_uTh-1" value="inicio" style="ellipse;whiteSpace=wrap;html=1;" vertex="1" parent="1">
          <mxGeometry x="372" y="60" width="120" height="80" as="geometry" />
        </mxCell>
        <mxCell id="tT4TNjP8U2fG3hzz_uTh-11" value="" style="edgeStyle=orthogonalEdgeStyle;rounded=0;orthogonalLoop=1;jettySize=auto;html=1;" edge="1" parent="1" source="tT4TNjP8U2fG3hzz_uTh-2" target="tT4TNjP8U2fG3hzz_uTh-3">
          <mxGeometry relative="1" as="geometry" />
        </mxCell>
        <mxCell id="tT4TNjP8U2fG3hzz_uTh-2" value="numero secreto = 7" style="shape=parallelogram;perimeter=parallelogramPerimeter;whiteSpace=wrap;html=1;fixedSize=1;" vertex="1" parent="1">
          <mxGeometry x="354" y="230" width="156" height="60" as="geometry" />
        </mxCell>
        <mxCell id="tT4TNjP8U2fG3hzz_uTh-12" style="edgeStyle=orthogonalEdgeStyle;rounded=0;orthogonalLoop=1;jettySize=auto;html=1;" edge="1" parent="1" source="tT4TNjP8U2fG3hzz_uTh-3">
          <mxGeometry relative="1" as="geometry">
            <mxPoint x="210" y="510" as="targetPoint" />
          </mxGeometry>
        </mxCell>
        <mxCell id="tT4TNjP8U2fG3hzz_uTh-13" style="edgeStyle=orthogonalEdgeStyle;rounded=0;orthogonalLoop=1;jettySize=auto;html=1;" edge="1" parent="1" source="tT4TNjP8U2fG3hzz_uTh-3">
          <mxGeometry relative="1" as="geometry">
            <mxPoint x="600" y="520" as="targetPoint" />
          </mxGeometry>
        </mxCell>
        <mxCell id="tT4TNjP8U2fG3hzz_uTh-23" style="edgeStyle=orthogonalEdgeStyle;rounded=0;orthogonalLoop=1;jettySize=auto;html=1;" edge="1" parent="1" source="tT4TNjP8U2fG3hzz_uTh-3">
          <mxGeometry relative="1" as="geometry">
            <mxPoint x="414" y="940" as="targetPoint" />
          </mxGeometry>
        </mxCell>
        <mxCell id="tT4TNjP8U2fG3hzz_uTh-3" value="adivina el numero secreto" style="rhombus;whiteSpace=wrap;html=1;" vertex="1" parent="1">
          <mxGeometry x="331" y="380" width="166" height="100" as="geometry" />
        </mxCell>
        <mxCell id="tT4TNjP8U2fG3hzz_uTh-6" value="" style="edgeStyle=orthogonalEdgeStyle;rounded=0;orthogonalLoop=1;jettySize=auto;html=1;" edge="1" parent="1" source="tT4TNjP8U2fG3hzz_uTh-4" target="tT4TNjP8U2fG3hzz_uTh-5">
          <mxGeometry relative="1" as="geometry" />
        </mxCell>
        <mxCell id="tT4TNjP8U2fG3hzz_uTh-4" value="si numero es &amp;gt;7" style="shape=parallelogram;perimeter=parallelogramPerimeter;whiteSpace=wrap;html=1;fixedSize=1;" vertex="1" parent="1">
          <mxGeometry x="120" y="520" width="160" height="75" as="geometry" />
        </mxCell>
        <mxCell id="tT4TNjP8U2fG3hzz_uTh-19" value="" style="edgeStyle=orthogonalEdgeStyle;rounded=0;orthogonalLoop=1;jettySize=auto;html=1;" edge="1" parent="1" source="tT4TNjP8U2fG3hzz_uTh-5" target="tT4TNjP8U2fG3hzz_uTh-15">
          <mxGeometry relative="1" as="geometry" />
        </mxCell>
        <mxCell id="tT4TNjP8U2fG3hzz_uTh-5" value="imprimir: su numero es mayor que numero secreto" style="whiteSpace=wrap;html=1;" vertex="1" parent="1">
          <mxGeometry x="140" y="682.5" width="120" height="60" as="geometry" />
        </mxCell>
        <mxCell id="tT4TNjP8U2fG3hzz_uTh-9" value="" style="edgeStyle=orthogonalEdgeStyle;rounded=0;orthogonalLoop=1;jettySize=auto;html=1;" edge="1" parent="1" source="tT4TNjP8U2fG3hzz_uTh-7" target="tT4TNjP8U2fG3hzz_uTh-8">
          <mxGeometry relative="1" as="geometry" />
        </mxCell>
        <mxCell id="tT4TNjP8U2fG3hzz_uTh-7" value="si numero es &amp;lt;7" style="shape=parallelogram;perimeter=parallelogramPerimeter;whiteSpace=wrap;html=1;fixedSize=1;" vertex="1" parent="1">
          <mxGeometry x="521" y="528" width="120" height="60" as="geometry" />
        </mxCell>
        <mxCell id="ZUj6wDsf0Miu019QSAg2-1" value="" style="edgeStyle=orthogonalEdgeStyle;rounded=0;orthogonalLoop=1;jettySize=auto;html=1;" edge="1" parent="1" source="tT4TNjP8U2fG3hzz_uTh-8" target="tT4TNjP8U2fG3hzz_uTh-17">
          <mxGeometry relative="1" as="geometry" />
        </mxCell>
        <mxCell id="tT4TNjP8U2fG3hzz_uTh-8" value="imprimir: su numero es menor que numero secreto" style="whiteSpace=wrap;html=1;" vertex="1" parent="1">
          <mxGeometry x="521" y="668" width="129" height="72" as="geometry" />
        </mxCell>
        <mxCell id="tT4TNjP8U2fG3hzz_uTh-14" value="fin" style="ellipse;whiteSpace=wrap;html=1;" vertex="1" parent="1">
          <mxGeometry x="331" y="950" width="179" height="120" as="geometry" />
        </mxCell>
        <mxCell id="tT4TNjP8U2fG3hzz_uTh-39" value="" style="edgeStyle=orthogonalEdgeStyle;rounded=0;orthogonalLoop=1;jettySize=auto;html=1;" edge="1" parent="1" source="tT4TNjP8U2fG3hzz_uTh-15" target="tT4TNjP8U2fG3hzz_uTh-35">
          <mxGeometry relative="1" as="geometry" />
        </mxCell>
        <mxCell id="tT4TNjP8U2fG3hzz_uTh-15" value="es 7" style="rounded=0;whiteSpace=wrap;html=1;" vertex="1" parent="1">
          <mxGeometry x="140" y="800" width="120" height="60" as="geometry" />
        </mxCell>
        <mxCell id="ZUj6wDsf0Miu019QSAg2-2" value="" style="edgeStyle=orthogonalEdgeStyle;rounded=0;orthogonalLoop=1;jettySize=auto;html=1;" edge="1" parent="1" source="tT4TNjP8U2fG3hzz_uTh-17" target="tT4TNjP8U2fG3hzz_uTh-36">
          <mxGeometry relative="1" as="geometry" />
        </mxCell>
        <mxCell id="tT4TNjP8U2fG3hzz_uTh-17" value="es 7" style="rounded=0;whiteSpace=wrap;html=1;" vertex="1" parent="1">
          <mxGeometry x="520" y="800" width="120" height="60" as="geometry" />
        </mxCell>
        <mxCell id="tT4TNjP8U2fG3hzz_uTh-21" value="yes" style="text;html=1;align=center;verticalAlign=middle;resizable=0;points=[];autosize=1;strokeColor=none;fillColor=none;" vertex="1" parent="1">
          <mxGeometry x="201" y="398" width="40" height="30" as="geometry" />
        </mxCell>
        <mxCell id="tT4TNjP8U2fG3hzz_uTh-22" value="yes" style="text;html=1;align=center;verticalAlign=middle;resizable=0;points=[];autosize=1;strokeColor=none;fillColor=none;" vertex="1" parent="1">
          <mxGeometry x="551" y="398" width="40" height="30" as="geometry" />
        </mxCell>
        <mxCell id="tT4TNjP8U2fG3hzz_uTh-24" value="no" style="text;html=1;align=center;verticalAlign=middle;resizable=0;points=[];autosize=1;strokeColor=none;fillColor=none;" vertex="1" parent="1">
          <mxGeometry x="361" y="658" width="40" height="30" as="geometry" />
        </mxCell>
        <mxCell id="tT4TNjP8U2fG3hzz_uTh-40" style="edgeStyle=orthogonalEdgeStyle;rounded=0;orthogonalLoop=1;jettySize=auto;html=1;" edge="1" parent="1" source="tT4TNjP8U2fG3hzz_uTh-35" target="tT4TNjP8U2fG3hzz_uTh-14">
          <mxGeometry relative="1" as="geometry" />
        </mxCell>
        <mxCell id="tT4TNjP8U2fG3hzz_uTh-35" value="adivinaste num secreto" style="rounded=0;whiteSpace=wrap;html=1;" vertex="1" parent="1">
          <mxGeometry x="140" y="930" width="120" height="60" as="geometry" />
        </mxCell>
        <mxCell id="tT4TNjP8U2fG3hzz_uTh-38" style="edgeStyle=orthogonalEdgeStyle;rounded=0;orthogonalLoop=1;jettySize=auto;html=1;entryX=1;entryY=0.5;entryDx=0;entryDy=0;" edge="1" parent="1" source="tT4TNjP8U2fG3hzz_uTh-36" target="tT4TNjP8U2fG3hzz_uTh-14">
          <mxGeometry relative="1" as="geometry" />
        </mxCell>
        <mxCell id="tT4TNjP8U2fG3hzz_uTh-36" value="adivinaste num secreto" style="rounded=0;whiteSpace=wrap;html=1;" vertex="1" parent="1">
          <mxGeometry x="540" y="910" width="120" height="60" as="geometry" />
        </mxCell>
      </root>
    </mxGraphModel>
  </diagram>
  <diagram id="P_PDOH5ZT66nmJK7DVyJ" name="ejercicio7Dia1.Diagrama">
    <mxGraphModel dx="1360" dy="795" grid="1" gridSize="10" guides="1" tooltips="1" connect="1" arrows="1" fold="1" page="1" pageScale="1" pageWidth="827" pageHeight="1169" math="0" shadow="0">
      <root>
        <mxCell id="0" />
        <mxCell id="1" parent="0" />
        <mxCell id="TxEyTZN3jDPhsv_4uXxi-3" value="" style="edgeStyle=orthogonalEdgeStyle;rounded=0;orthogonalLoop=1;jettySize=auto;html=1;" edge="1" parent="1" source="TxEyTZN3jDPhsv_4uXxi-1" target="TxEyTZN3jDPhsv_4uXxi-2">
          <mxGeometry relative="1" as="geometry" />
        </mxCell>
        <mxCell id="TxEyTZN3jDPhsv_4uXxi-1" value="inicio" style="ellipse;whiteSpace=wrap;html=1;" vertex="1" parent="1">
          <mxGeometry x="350" y="320" width="120" height="80" as="geometry" />
        </mxCell>
        <mxCell id="TxEyTZN3jDPhsv_4uXxi-7" value="" style="edgeStyle=orthogonalEdgeStyle;rounded=0;orthogonalLoop=1;jettySize=auto;html=1;" edge="1" parent="1" source="TxEyTZN3jDPhsv_4uXxi-2" target="TxEyTZN3jDPhsv_4uXxi-6">
          <mxGeometry relative="1" as="geometry" />
        </mxCell>
        <mxCell id="TxEyTZN3jDPhsv_4uXxi-2" value="ingresa 2 numeros" style="shape=parallelogram;perimeter=parallelogramPerimeter;whiteSpace=wrap;html=1;fixedSize=1;" vertex="1" parent="1">
          <mxGeometry x="325" y="490" width="170" height="70" as="geometry" />
        </mxCell>
        <mxCell id="TxEyTZN3jDPhsv_4uXxi-9" value="" style="edgeStyle=orthogonalEdgeStyle;rounded=0;orthogonalLoop=1;jettySize=auto;html=1;" edge="1" parent="1" source="TxEyTZN3jDPhsv_4uXxi-6" target="TxEyTZN3jDPhsv_4uXxi-8">
          <mxGeometry relative="1" as="geometry" />
        </mxCell>
        <mxCell id="TxEyTZN3jDPhsv_4uXxi-11" value="" style="edgeStyle=orthogonalEdgeStyle;rounded=0;orthogonalLoop=1;jettySize=auto;html=1;" edge="1" parent="1" source="TxEyTZN3jDPhsv_4uXxi-6" target="TxEyTZN3jDPhsv_4uXxi-10">
          <mxGeometry relative="1" as="geometry" />
        </mxCell>
        <mxCell id="TxEyTZN3jDPhsv_4uXxi-6" value="cual es el mayor?" style="rhombus;whiteSpace=wrap;html=1;" vertex="1" parent="1">
          <mxGeometry x="335" y="620" width="150" height="120" as="geometry" />
        </mxCell>
        <mxCell id="TxEyTZN3jDPhsv_4uXxi-15" value="" style="edgeStyle=orthogonalEdgeStyle;rounded=0;orthogonalLoop=1;jettySize=auto;html=1;" edge="1" parent="1" source="TxEyTZN3jDPhsv_4uXxi-8" target="TxEyTZN3jDPhsv_4uXxi-14">
          <mxGeometry relative="1" as="geometry" />
        </mxCell>
        <mxCell id="TxEyTZN3jDPhsv_4uXxi-8" value="&amp;lt; numero ingresado" style="whiteSpace=wrap;html=1;" vertex="1" parent="1">
          <mxGeometry x="580" y="650" width="120" height="60" as="geometry" />
        </mxCell>
        <mxCell id="TxEyTZN3jDPhsv_4uXxi-13" value="" style="edgeStyle=orthogonalEdgeStyle;rounded=0;orthogonalLoop=1;jettySize=auto;html=1;" edge="1" parent="1" source="TxEyTZN3jDPhsv_4uXxi-10" target="TxEyTZN3jDPhsv_4uXxi-12">
          <mxGeometry relative="1" as="geometry" />
        </mxCell>
        <mxCell id="TxEyTZN3jDPhsv_4uXxi-10" value="&amp;gt; numero ingresado" style="whiteSpace=wrap;html=1;" vertex="1" parent="1">
          <mxGeometry x="350" y="920" width="120" height="60" as="geometry" />
        </mxCell>
        <mxCell id="TxEyTZN3jDPhsv_4uXxi-32" style="edgeStyle=orthogonalEdgeStyle;rounded=0;orthogonalLoop=1;jettySize=auto;html=1;entryX=0.5;entryY=1;entryDx=0;entryDy=0;" edge="1" parent="1" source="TxEyTZN3jDPhsv_4uXxi-12" target="TxEyTZN3jDPhsv_4uXxi-30">
          <mxGeometry relative="1" as="geometry">
            <mxPoint x="1040" y="810" as="targetPoint" />
          </mxGeometry>
        </mxCell>
        <mxCell id="TxEyTZN3jDPhsv_4uXxi-12" value="imprimir: numero es mayor" style="whiteSpace=wrap;html=1;" vertex="1" parent="1">
          <mxGeometry x="820" y="920" width="120" height="60" as="geometry" />
        </mxCell>
        <mxCell id="TxEyTZN3jDPhsv_4uXxi-31" style="edgeStyle=orthogonalEdgeStyle;rounded=0;orthogonalLoop=1;jettySize=auto;html=1;" edge="1" parent="1" source="TxEyTZN3jDPhsv_4uXxi-14">
          <mxGeometry relative="1" as="geometry">
            <mxPoint x="1020" y="720" as="targetPoint" />
          </mxGeometry>
        </mxCell>
        <mxCell id="TxEyTZN3jDPhsv_4uXxi-14" value="impimir numero es menor " style="whiteSpace=wrap;html=1;" vertex="1" parent="1">
          <mxGeometry x="780" y="650" width="120" height="60" as="geometry" />
        </mxCell>
        <mxCell id="TxEyTZN3jDPhsv_4uXxi-24" value="" style="edgeStyle=orthogonalEdgeStyle;rounded=0;orthogonalLoop=1;jettySize=auto;html=1;" edge="1" parent="1" source="TxEyTZN3jDPhsv_4uXxi-25" target="TxEyTZN3jDPhsv_4uXxi-26">
          <mxGeometry relative="1" as="geometry" />
        </mxCell>
        <mxCell id="TxEyTZN3jDPhsv_4uXxi-25" value="es igual " style="rounded=0;whiteSpace=wrap;html=1;" vertex="1" parent="1">
          <mxGeometry x="1190" y="730" width="120" height="60" as="geometry" />
        </mxCell>
        <mxCell id="TxEyTZN3jDPhsv_4uXxi-26" value="imprimir es igual" style="whiteSpace=wrap;html=1;rounded=0;" vertex="1" parent="1">
          <mxGeometry x="1450" y="730" width="120" height="60" as="geometry" />
        </mxCell>
        <mxCell id="TxEyTZN3jDPhsv_4uXxi-34" value="" style="edgeStyle=orthogonalEdgeStyle;rounded=0;orthogonalLoop=1;jettySize=auto;html=1;" edge="1" parent="1" source="TxEyTZN3jDPhsv_4uXxi-30" target="TxEyTZN3jDPhsv_4uXxi-25">
          <mxGeometry relative="1" as="geometry" />
        </mxCell>
        <mxCell id="TxEyTZN3jDPhsv_4uXxi-30" value="ingrese dos numeros" style="rounded=0;whiteSpace=wrap;html=1;" vertex="1" parent="1">
          <mxGeometry x="980" y="730" width="120" height="60" as="geometry" />
        </mxCell>
        <mxCell id="TxEyTZN3jDPhsv_4uXxi-35" value="fin" style="ellipse;whiteSpace=wrap;html=1;" vertex="1" parent="1">
          <mxGeometry x="1680" y="780" width="120" height="80" as="geometry" />
        </mxCell>
        <mxCell id="TxEyTZN3jDPhsv_4uXxi-36" style="edgeStyle=orthogonalEdgeStyle;rounded=0;orthogonalLoop=1;jettySize=auto;html=1;entryX=0;entryY=0.7;entryDx=0;entryDy=0;entryPerimeter=0;" edge="1" parent="1" source="TxEyTZN3jDPhsv_4uXxi-26" target="TxEyTZN3jDPhsv_4uXxi-35">
          <mxGeometry relative="1" as="geometry" />
        </mxCell>
        <mxCell id="TxEyTZN3jDPhsv_4uXxi-42" value="yes" style="text;html=1;align=center;verticalAlign=middle;resizable=0;points=[];autosize=1;strokeColor=none;fillColor=none;" vertex="1" parent="1">
          <mxGeometry x="1121" y="718" width="40" height="30" as="geometry" />
        </mxCell>
        <mxCell id="TxEyTZN3jDPhsv_4uXxi-43" value="no" style="text;html=1;align=center;verticalAlign=middle;resizable=0;points=[];autosize=1;strokeColor=none;fillColor=none;" vertex="1" parent="1">
          <mxGeometry x="1140" y="890" width="40" height="30" as="geometry" />
        </mxCell>
        <mxCell id="TxEyTZN3jDPhsv_4uXxi-45" value="" style="endArrow=none;html=1;rounded=0;" edge="1" parent="1">
          <mxGeometry width="50" height="50" relative="1" as="geometry">
            <mxPoint x="1260" y="920" as="sourcePoint" />
            <mxPoint x="1260" y="790" as="targetPoint" />
          </mxGeometry>
        </mxCell>
        <mxCell id="TxEyTZN3jDPhsv_4uXxi-47" value="" style="endArrow=none;html=1;rounded=0;" edge="1" parent="1">
          <mxGeometry width="50" height="50" relative="1" as="geometry">
            <mxPoint x="1040" y="920" as="sourcePoint" />
            <mxPoint x="1260" y="920" as="targetPoint" />
          </mxGeometry>
        </mxCell>
      </root>
    </mxGraphModel>
  </diagram>
  <diagram id="yNEFIOCBgxokEBnIIy4r" name="ejercicio8Dia1.Diagrama">
    <mxGraphModel dx="1360" dy="795" grid="1" gridSize="10" guides="1" tooltips="1" connect="1" arrows="1" fold="1" page="1" pageScale="1" pageWidth="827" pageHeight="1169" math="0" shadow="0">
      <root>
        <mxCell id="0" />
        <mxCell id="1" parent="0" />
        <mxCell id="eyBoeW25y3gvgrnow6Qm-4" value="" style="edgeStyle=orthogonalEdgeStyle;rounded=0;orthogonalLoop=1;jettySize=auto;html=1;" edge="1" parent="1" source="eyBoeW25y3gvgrnow6Qm-2" target="eyBoeW25y3gvgrnow6Qm-3">
          <mxGeometry relative="1" as="geometry" />
        </mxCell>
        <mxCell id="eyBoeW25y3gvgrnow6Qm-2" value="inicio" style="ellipse;whiteSpace=wrap;html=1;" vertex="1" parent="1">
          <mxGeometry x="330" y="80" width="120" height="80" as="geometry" />
        </mxCell>
        <mxCell id="eyBoeW25y3gvgrnow6Qm-6" value="" style="edgeStyle=orthogonalEdgeStyle;rounded=0;orthogonalLoop=1;jettySize=auto;html=1;" edge="1" parent="1" source="eyBoeW25y3gvgrnow6Qm-2" target="eyBoeW25y3gvgrnow6Qm-5">
          <mxGeometry relative="1" as="geometry" />
        </mxCell>
        <mxCell id="eyBoeW25y3gvgrnow6Qm-3" value="digite peso en kg" style="shape=parallelogram;perimeter=parallelogramPerimeter;whiteSpace=wrap;html=1;fixedSize=1;" vertex="1" parent="1">
          <mxGeometry x="204" y="240" width="140" height="60" as="geometry" />
        </mxCell>
        <mxCell id="eyBoeW25y3gvgrnow6Qm-5" value="digite altura en m" style="shape=parallelogram;perimeter=parallelogramPerimeter;whiteSpace=wrap;html=1;fixedSize=1;" vertex="1" parent="1">
          <mxGeometry x="414" y="240" width="140" height="70" as="geometry" />
        </mxCell>
        <mxCell id="r5A-PBPid2K_CRmAu4aH-3" value="" style="edgeStyle=orthogonalEdgeStyle;rounded=0;orthogonalLoop=1;jettySize=auto;html=1;" edge="1" parent="1" source="eyBoeW25y3gvgrnow6Qm-8" target="r5A-PBPid2K_CRmAu4aH-2">
          <mxGeometry relative="1" as="geometry" />
        </mxCell>
        <mxCell id="eyBoeW25y3gvgrnow6Qm-8" value="calcule IMC=peso/altura" style="rounded=0;whiteSpace=wrap;html=1;" vertex="1" parent="1">
          <mxGeometry x="310" y="570" width="140" height="75" as="geometry" />
        </mxCell>
        <mxCell id="r5A-PBPid2K_CRmAu4aH-5" value="" style="edgeStyle=orthogonalEdgeStyle;rounded=0;orthogonalLoop=1;jettySize=auto;html=1;" edge="1" parent="1" source="eyBoeW25y3gvgrnow6Qm-11" target="eyBoeW25y3gvgrnow6Qm-16">
          <mxGeometry relative="1" as="geometry" />
        </mxCell>
        <mxCell id="r5A-PBPid2K_CRmAu4aH-8" value="" style="edgeStyle=orthogonalEdgeStyle;rounded=0;orthogonalLoop=1;jettySize=auto;html=1;" edge="1" parent="1" source="eyBoeW25y3gvgrnow6Qm-11" target="r5A-PBPid2K_CRmAu4aH-7">
          <mxGeometry relative="1" as="geometry" />
        </mxCell>
        <mxCell id="eyBoeW25y3gvgrnow6Qm-11" value="IMC &amp;lt; 18.5? " style="rhombus;whiteSpace=wrap;html=1;" vertex="1" parent="1">
          <mxGeometry x="575" y="480" width="90" height="70" as="geometry" />
        </mxCell>
        <mxCell id="eyBoeW25y3gvgrnow6Qm-16" value="bajo peso" style="rounded=0;whiteSpace=wrap;html=1;" vertex="1" parent="1">
          <mxGeometry x="585" y="388" width="70" height="42" as="geometry" />
        </mxCell>
        <mxCell id="eyBoeW25y3gvgrnow6Qm-19" value="fin" style="ellipse;whiteSpace=wrap;html=1;" vertex="1" parent="1">
          <mxGeometry x="827" y="90" width="150" height="90" as="geometry" />
        </mxCell>
        <mxCell id="r5A-PBPid2K_CRmAu4aH-6" value="" style="edgeStyle=orthogonalEdgeStyle;rounded=0;orthogonalLoop=1;jettySize=auto;html=1;" edge="1" parent="1" source="r5A-PBPid2K_CRmAu4aH-2" target="eyBoeW25y3gvgrnow6Qm-11">
          <mxGeometry relative="1" as="geometry" />
        </mxCell>
        <mxCell id="r5A-PBPid2K_CRmAu4aH-2" value="resultado" style="shape=parallelogram;perimeter=parallelogramPerimeter;whiteSpace=wrap;html=1;fixedSize=1;" vertex="1" parent="1">
          <mxGeometry x="560" y="592.5" width="120" height="60" as="geometry" />
        </mxCell>
        <mxCell id="r5A-PBPid2K_CRmAu4aH-11" value="" style="edgeStyle=orthogonalEdgeStyle;rounded=0;orthogonalLoop=1;jettySize=auto;html=1;" edge="1" parent="1" source="r5A-PBPid2K_CRmAu4aH-7" target="r5A-PBPid2K_CRmAu4aH-10">
          <mxGeometry relative="1" as="geometry" />
        </mxCell>
        <mxCell id="r5A-PBPid2K_CRmAu4aH-17" value="" style="edgeStyle=orthogonalEdgeStyle;rounded=0;orthogonalLoop=1;jettySize=auto;html=1;" edge="1" parent="1" source="r5A-PBPid2K_CRmAu4aH-7" target="r5A-PBPid2K_CRmAu4aH-16">
          <mxGeometry relative="1" as="geometry" />
        </mxCell>
        <mxCell id="r5A-PBPid2K_CRmAu4aH-7" value="si imc esta entre&lt;br&gt;18.5 y 24.9" style="rhombus;whiteSpace=wrap;html=1;" vertex="1" parent="1">
          <mxGeometry x="740" y="460" width="110" height="110" as="geometry" />
        </mxCell>
        <mxCell id="r5A-PBPid2K_CRmAu4aH-9" value="yes" style="text;html=1;align=center;verticalAlign=middle;resizable=0;points=[];autosize=1;strokeColor=none;fillColor=none;" vertex="1" parent="1">
          <mxGeometry x="561" y="448" width="40" height="30" as="geometry" />
        </mxCell>
        <mxCell id="r5A-PBPid2K_CRmAu4aH-10" value="normal" style="whiteSpace=wrap;html=1;" vertex="1" parent="1">
          <mxGeometry x="752.5" y="380" width="85" height="30" as="geometry" />
        </mxCell>
        <mxCell id="r5A-PBPid2K_CRmAu4aH-12" value="yes" style="text;html=1;align=center;verticalAlign=middle;resizable=0;points=[];autosize=1;strokeColor=none;fillColor=none;" vertex="1" parent="1">
          <mxGeometry x="750" y="430" width="40" height="30" as="geometry" />
        </mxCell>
        <mxCell id="r5A-PBPid2K_CRmAu4aH-13" value="" style="endArrow=classic;html=1;rounded=0;exitX=0.421;exitY=1.05;exitDx=0;exitDy=0;exitPerimeter=0;entryX=0.25;entryY=0;entryDx=0;entryDy=0;" edge="1" parent="1" source="eyBoeW25y3gvgrnow6Qm-3" target="eyBoeW25y3gvgrnow6Qm-8">
          <mxGeometry width="50" height="50" relative="1" as="geometry">
            <mxPoint x="270" y="370" as="sourcePoint" />
            <mxPoint x="320" y="320" as="targetPoint" />
          </mxGeometry>
        </mxCell>
        <mxCell id="r5A-PBPid2K_CRmAu4aH-14" value="" style="endArrow=classic;html=1;rounded=0;exitX=0.407;exitY=0.957;exitDx=0;exitDy=0;exitPerimeter=0;entryX=0.657;entryY=0.053;entryDx=0;entryDy=0;entryPerimeter=0;" edge="1" parent="1" source="eyBoeW25y3gvgrnow6Qm-5" target="eyBoeW25y3gvgrnow6Qm-8">
          <mxGeometry width="50" height="50" relative="1" as="geometry">
            <mxPoint x="420" y="400" as="sourcePoint" />
            <mxPoint x="470" y="350" as="targetPoint" />
          </mxGeometry>
        </mxCell>
        <mxCell id="r5A-PBPid2K_CRmAu4aH-15" value="no" style="text;html=1;align=center;verticalAlign=middle;resizable=0;points=[];autosize=1;strokeColor=none;fillColor=none;" vertex="1" parent="1">
          <mxGeometry x="671" y="478" width="40" height="30" as="geometry" />
        </mxCell>
        <mxCell id="r5A-PBPid2K_CRmAu4aH-20" value="" style="edgeStyle=orthogonalEdgeStyle;rounded=0;orthogonalLoop=1;jettySize=auto;html=1;" edge="1" parent="1" source="r5A-PBPid2K_CRmAu4aH-16" target="r5A-PBPid2K_CRmAu4aH-19">
          <mxGeometry relative="1" as="geometry" />
        </mxCell>
        <mxCell id="r5A-PBPid2K_CRmAu4aH-23" style="edgeStyle=orthogonalEdgeStyle;rounded=0;orthogonalLoop=1;jettySize=auto;html=1;entryX=0;entryY=0.5;entryDx=0;entryDy=0;" edge="1" parent="1" source="r5A-PBPid2K_CRmAu4aH-16" target="r5A-PBPid2K_CRmAu4aH-22">
          <mxGeometry relative="1" as="geometry" />
        </mxCell>
        <mxCell id="r5A-PBPid2K_CRmAu4aH-16" value="&lt;div&gt;si IMC está&amp;nbsp;&lt;/div&gt;&lt;div&gt;entre 25 y 29.9&lt;/div&gt;" style="rhombus;whiteSpace=wrap;html=1;" vertex="1" parent="1">
          <mxGeometry x="910" y="465" width="120" height="100" as="geometry" />
        </mxCell>
        <mxCell id="r5A-PBPid2K_CRmAu4aH-18" value="no" style="text;html=1;align=center;verticalAlign=middle;resizable=0;points=[];autosize=1;strokeColor=none;fillColor=none;" vertex="1" parent="1">
          <mxGeometry x="860" y="480" width="40" height="30" as="geometry" />
        </mxCell>
        <mxCell id="r5A-PBPid2K_CRmAu4aH-19" value="sobrepeso" style="rounded=0;whiteSpace=wrap;html=1;" vertex="1" parent="1">
          <mxGeometry x="925" y="380" width="90" height="30" as="geometry" />
        </mxCell>
        <mxCell id="r5A-PBPid2K_CRmAu4aH-21" value="yes" style="text;html=1;align=center;verticalAlign=middle;resizable=0;points=[];autosize=1;strokeColor=none;fillColor=none;" vertex="1" parent="1">
          <mxGeometry x="931" y="428" width="40" height="30" as="geometry" />
        </mxCell>
        <mxCell id="r5A-PBPid2K_CRmAu4aH-25" value="" style="edgeStyle=orthogonalEdgeStyle;rounded=0;orthogonalLoop=1;jettySize=auto;html=1;" edge="1" parent="1" source="r5A-PBPid2K_CRmAu4aH-22" target="r5A-PBPid2K_CRmAu4aH-24">
          <mxGeometry relative="1" as="geometry" />
        </mxCell>
        <mxCell id="r5A-PBPid2K_CRmAu4aH-22" value="si IMC es mayor o igual a 30" style="rhombus;whiteSpace=wrap;html=1;" vertex="1" parent="1">
          <mxGeometry x="1120" y="460" width="110" height="95" as="geometry" />
        </mxCell>
        <mxCell id="r5A-PBPid2K_CRmAu4aH-24" value="obseidad" style="rounded=0;whiteSpace=wrap;html=1;" vertex="1" parent="1">
          <mxGeometry x="1120" y="380" width="90" height="40" as="geometry" />
        </mxCell>
        <mxCell id="r5A-PBPid2K_CRmAu4aH-26" value="no" style="text;html=1;align=center;verticalAlign=middle;resizable=0;points=[];autosize=1;strokeColor=none;fillColor=none;" vertex="1" parent="1">
          <mxGeometry x="1061" y="478" width="40" height="30" as="geometry" />
        </mxCell>
        <mxCell id="r5A-PBPid2K_CRmAu4aH-27" value="yes" style="text;html=1;align=center;verticalAlign=middle;resizable=0;points=[];autosize=1;strokeColor=none;fillColor=none;" vertex="1" parent="1">
          <mxGeometry x="1131" y="438" width="40" height="30" as="geometry" />
        </mxCell>
        <mxCell id="r5A-PBPid2K_CRmAu4aH-36" style="edgeStyle=orthogonalEdgeStyle;rounded=0;orthogonalLoop=1;jettySize=auto;html=1;entryX=0.24;entryY=0.967;entryDx=0;entryDy=0;entryPerimeter=0;" edge="1" parent="1" source="r5A-PBPid2K_CRmAu4aH-10" target="eyBoeW25y3gvgrnow6Qm-19">
          <mxGeometry relative="1" as="geometry" />
        </mxCell>
        <mxCell id="r5A-PBPid2K_CRmAu4aH-37" style="edgeStyle=orthogonalEdgeStyle;rounded=0;orthogonalLoop=1;jettySize=auto;html=1;entryX=0.62;entryY=1.033;entryDx=0;entryDy=0;entryPerimeter=0;" edge="1" parent="1" source="r5A-PBPid2K_CRmAu4aH-19" target="eyBoeW25y3gvgrnow6Qm-19">
          <mxGeometry relative="1" as="geometry" />
        </mxCell>
        <mxCell id="r5A-PBPid2K_CRmAu4aH-38" style="edgeStyle=orthogonalEdgeStyle;rounded=0;orthogonalLoop=1;jettySize=auto;html=1;entryX=1.007;entryY=0.633;entryDx=0;entryDy=0;entryPerimeter=0;" edge="1" parent="1" source="r5A-PBPid2K_CRmAu4aH-24" target="eyBoeW25y3gvgrnow6Qm-19">
          <mxGeometry relative="1" as="geometry">
            <Array as="points">
              <mxPoint x="1165" y="270" />
              <mxPoint x="978" y="270" />
            </Array>
          </mxGeometry>
        </mxCell>
        <mxCell id="r5A-PBPid2K_CRmAu4aH-39" style="edgeStyle=orthogonalEdgeStyle;rounded=0;orthogonalLoop=1;jettySize=auto;html=1;entryX=0.027;entryY=0.678;entryDx=0;entryDy=0;entryPerimeter=0;" edge="1" parent="1" source="eyBoeW25y3gvgrnow6Qm-16" target="eyBoeW25y3gvgrnow6Qm-19">
          <mxGeometry relative="1" as="geometry">
            <Array as="points">
              <mxPoint x="620" y="270" />
              <mxPoint x="831" y="270" />
            </Array>
          </mxGeometry>
        </mxCell>
      </root>
    </mxGraphModel>
  </diagram>
  <diagram id="xb45DdbYNKNcOcosXeW8" name="ejercicio9Dia1.Diagrama">
    <mxGraphModel dx="1360" dy="795" grid="1" gridSize="10" guides="1" tooltips="1" connect="1" arrows="1" fold="1" page="1" pageScale="1" pageWidth="827" pageHeight="1169" math="0" shadow="0">
      <root>
        <mxCell id="0" />
        <mxCell id="1" parent="0" />
        <mxCell id="YF39OyPAmN6o0TB50ZQE-3" value="" style="edgeStyle=orthogonalEdgeStyle;rounded=0;orthogonalLoop=1;jettySize=auto;html=1;" edge="1" parent="1" source="YF39OyPAmN6o0TB50ZQE-1" target="YF39OyPAmN6o0TB50ZQE-2">
          <mxGeometry relative="1" as="geometry" />
        </mxCell>
        <mxCell id="YF39OyPAmN6o0TB50ZQE-1" value="inicio" style="ellipse;whiteSpace=wrap;html=1;" vertex="1" parent="1">
          <mxGeometry x="350" y="320" width="120" height="80" as="geometry" />
        </mxCell>
        <mxCell id="YF39OyPAmN6o0TB50ZQE-5" value="" style="edgeStyle=orthogonalEdgeStyle;rounded=0;orthogonalLoop=1;jettySize=auto;html=1;" edge="1" parent="1" source="YF39OyPAmN6o0TB50ZQE-2" target="YF39OyPAmN6o0TB50ZQE-4">
          <mxGeometry relative="1" as="geometry" />
        </mxCell>
        <mxCell id="YF39OyPAmN6o0TB50ZQE-2" value="digite año" style="shape=parallelogram;perimeter=parallelogramPerimeter;whiteSpace=wrap;html=1;fixedSize=1;" vertex="1" parent="1">
          <mxGeometry x="350" y="490" width="120" height="60" as="geometry" />
        </mxCell>
        <mxCell id="YF39OyPAmN6o0TB50ZQE-7" value="" style="edgeStyle=orthogonalEdgeStyle;rounded=0;orthogonalLoop=1;jettySize=auto;html=1;" edge="1" parent="1" source="YF39OyPAmN6o0TB50ZQE-4" target="YF39OyPAmN6o0TB50ZQE-6">
          <mxGeometry relative="1" as="geometry" />
        </mxCell>
        <mxCell id="YF39OyPAmN6o0TB50ZQE-19" style="edgeStyle=orthogonalEdgeStyle;rounded=0;orthogonalLoop=1;jettySize=auto;html=1;" edge="1" parent="1" source="YF39OyPAmN6o0TB50ZQE-4">
          <mxGeometry relative="1" as="geometry">
            <mxPoint x="590" y="950" as="targetPoint" />
          </mxGeometry>
        </mxCell>
        <mxCell id="YF39OyPAmN6o0TB50ZQE-4" value="divisible entre 4?" style="rhombus;whiteSpace=wrap;html=1;" vertex="1" parent="1">
          <mxGeometry x="330" y="620" width="120" height="120" as="geometry" />
        </mxCell>
        <mxCell id="YF39OyPAmN6o0TB50ZQE-11" style="edgeStyle=orthogonalEdgeStyle;rounded=0;orthogonalLoop=1;jettySize=auto;html=1;entryX=0.75;entryY=0;entryDx=0;entryDy=0;" edge="1" parent="1" source="YF39OyPAmN6o0TB50ZQE-6" target="YF39OyPAmN6o0TB50ZQE-10">
          <mxGeometry relative="1" as="geometry" />
        </mxCell>
        <mxCell id="YF39OyPAmN6o0TB50ZQE-13" style="edgeStyle=orthogonalEdgeStyle;rounded=0;orthogonalLoop=1;jettySize=auto;html=1;" edge="1" parent="1" source="YF39OyPAmN6o0TB50ZQE-6">
          <mxGeometry relative="1" as="geometry">
            <mxPoint x="590" y="990" as="targetPoint" />
          </mxGeometry>
        </mxCell>
        <mxCell id="YF39OyPAmN6o0TB50ZQE-6" value="divisible entre 100?" style="rhombus;whiteSpace=wrap;html=1;" vertex="1" parent="1">
          <mxGeometry x="330" y="820" width="130" height="120" as="geometry" />
        </mxCell>
        <mxCell id="YF39OyPAmN6o0TB50ZQE-17" style="edgeStyle=orthogonalEdgeStyle;rounded=0;orthogonalLoop=1;jettySize=auto;html=1;" edge="1" parent="1" source="YF39OyPAmN6o0TB50ZQE-9">
          <mxGeometry relative="1" as="geometry">
            <mxPoint x="400" y="1080" as="targetPoint" />
          </mxGeometry>
        </mxCell>
        <mxCell id="YF39OyPAmN6o0TB50ZQE-9" value="es bisiesto" style="rounded=0;whiteSpace=wrap;html=1;" vertex="1" parent="1">
          <mxGeometry x="520" y="1000" width="120" height="60" as="geometry" />
        </mxCell>
        <mxCell id="YF39OyPAmN6o0TB50ZQE-16" style="edgeStyle=orthogonalEdgeStyle;rounded=0;orthogonalLoop=1;jettySize=auto;html=1;" edge="1" parent="1" source="YF39OyPAmN6o0TB50ZQE-10" target="YF39OyPAmN6o0TB50ZQE-15">
          <mxGeometry relative="1" as="geometry" />
        </mxCell>
        <mxCell id="YF39OyPAmN6o0TB50ZQE-10" value="no es bisiesto" style="rounded=0;whiteSpace=wrap;html=1;" vertex="1" parent="1">
          <mxGeometry x="180" y="1000" width="120" height="60" as="geometry" />
        </mxCell>
        <mxCell id="YF39OyPAmN6o0TB50ZQE-12" value="no" style="text;html=1;align=center;verticalAlign=middle;resizable=0;points=[];autosize=1;strokeColor=none;fillColor=none;" vertex="1" parent="1">
          <mxGeometry x="230" y="910" width="40" height="30" as="geometry" />
        </mxCell>
        <mxCell id="YF39OyPAmN6o0TB50ZQE-14" value="yes" style="text;html=1;align=center;verticalAlign=middle;resizable=0;points=[];autosize=1;strokeColor=none;fillColor=none;" vertex="1" parent="1">
          <mxGeometry x="551" y="888" width="40" height="30" as="geometry" />
        </mxCell>
        <mxCell id="YF39OyPAmN6o0TB50ZQE-15" value="fin" style="ellipse;whiteSpace=wrap;html=1;" vertex="1" parent="1">
          <mxGeometry x="340" y="1089" width="120" height="80" as="geometry" />
        </mxCell>
        <mxCell id="YF39OyPAmN6o0TB50ZQE-18" value="no" style="text;html=1;align=center;verticalAlign=middle;resizable=0;points=[];autosize=1;strokeColor=none;fillColor=none;" vertex="1" parent="1">
          <mxGeometry x="360" y="760" width="40" height="30" as="geometry" />
        </mxCell>
        <mxCell id="YF39OyPAmN6o0TB50ZQE-20" value="yes" style="text;html=1;align=center;verticalAlign=middle;resizable=0;points=[];autosize=1;strokeColor=none;fillColor=none;" vertex="1" parent="1">
          <mxGeometry x="561" y="718" width="40" height="30" as="geometry" />
        </mxCell>
      </root>
    </mxGraphModel>
  </diagram>
  <diagram id="YQvOAHaBymjs6oovWRqI" name="ejercicio10Dia1.Diagrama">
    <mxGraphModel dx="1360" dy="795" grid="1" gridSize="10" guides="1" tooltips="1" connect="1" arrows="1" fold="1" page="1" pageScale="1" pageWidth="827" pageHeight="1169" math="0" shadow="0">
      <root>
        <mxCell id="0" />
        <mxCell id="1" parent="0" />
        <mxCell id="PVvdW4NzVCBOMxm0uCjy-1" value="" style="edgeStyle=orthogonalEdgeStyle;rounded=0;orthogonalLoop=1;jettySize=auto;html=1;" edge="1" parent="1" source="eX3aD4yfi73ebac95ccq-1" target="eX3aD4yfi73ebac95ccq-2">
          <mxGeometry relative="1" as="geometry" />
        </mxCell>
        <mxCell id="eX3aD4yfi73ebac95ccq-1" value="inicio" style="ellipse;whiteSpace=wrap;html=1;" vertex="1" parent="1">
          <mxGeometry x="340" y="90" width="120" height="80" as="geometry" />
        </mxCell>
        <mxCell id="PVvdW4NzVCBOMxm0uCjy-3" value="" style="edgeStyle=orthogonalEdgeStyle;rounded=0;orthogonalLoop=1;jettySize=auto;html=1;" edge="1" parent="1" source="eX3aD4yfi73ebac95ccq-2" target="PVvdW4NzVCBOMxm0uCjy-2">
          <mxGeometry relative="1" as="geometry" />
        </mxCell>
        <mxCell id="eX3aD4yfi73ebac95ccq-2" value="digite numero entero" style="shape=parallelogram;perimeter=parallelogramPerimeter;whiteSpace=wrap;html=1;fixedSize=1;" vertex="1" parent="1">
          <mxGeometry x="340" y="240" width="150" height="70" as="geometry" />
        </mxCell>
        <mxCell id="PVvdW4NzVCBOMxm0uCjy-5" value="" style="edgeStyle=orthogonalEdgeStyle;rounded=0;orthogonalLoop=1;jettySize=auto;html=1;" edge="1" parent="1" source="PVvdW4NzVCBOMxm0uCjy-2">
          <mxGeometry relative="1" as="geometry">
            <mxPoint x="570" y="455" as="targetPoint" />
          </mxGeometry>
        </mxCell>
        <mxCell id="PVvdW4NzVCBOMxm0uCjy-14" value="" style="edgeStyle=orthogonalEdgeStyle;rounded=0;orthogonalLoop=1;jettySize=auto;html=1;" edge="1" parent="1" source="PVvdW4NzVCBOMxm0uCjy-2" target="PVvdW4NzVCBOMxm0uCjy-13">
          <mxGeometry relative="1" as="geometry" />
        </mxCell>
        <mxCell id="PVvdW4NzVCBOMxm0uCjy-2" value="es mayor o igual a 1?" style="rhombus;whiteSpace=wrap;html=1;" vertex="1" parent="1">
          <mxGeometry x="320" y="380" width="140" height="150" as="geometry" />
        </mxCell>
        <mxCell id="PVvdW4NzVCBOMxm0uCjy-6" value="yes" style="text;html=1;align=center;verticalAlign=middle;resizable=0;points=[];autosize=1;strokeColor=none;fillColor=none;" vertex="1" parent="1">
          <mxGeometry x="490" y="425" width="40" height="30" as="geometry" />
        </mxCell>
        <mxCell id="PVvdW4NzVCBOMxm0uCjy-9" value="" style="edgeStyle=orthogonalEdgeStyle;rounded=0;orthogonalLoop=1;jettySize=auto;html=1;" edge="1" parent="1" source="PVvdW4NzVCBOMxm0uCjy-7" target="PVvdW4NzVCBOMxm0uCjy-8">
          <mxGeometry relative="1" as="geometry" />
        </mxCell>
        <mxCell id="PVvdW4NzVCBOMxm0uCjy-7" value="el numero esta dentro rango 1-10?" style="rhombus;whiteSpace=wrap;html=1;" vertex="1" parent="1">
          <mxGeometry x="570" y="387.5" width="160" height="135" as="geometry" />
        </mxCell>
        <mxCell id="PVvdW4NzVCBOMxm0uCjy-12" style="edgeStyle=orthogonalEdgeStyle;rounded=0;orthogonalLoop=1;jettySize=auto;html=1;" edge="1" parent="1" source="PVvdW4NzVCBOMxm0uCjy-8" target="PVvdW4NzVCBOMxm0uCjy-11">
          <mxGeometry relative="1" as="geometry" />
        </mxCell>
        <mxCell id="PVvdW4NzVCBOMxm0uCjy-8" value="esta en el rango 1-10" style="rounded=0;whiteSpace=wrap;html=1;" vertex="1" parent="1">
          <mxGeometry x="827" y="425" width="120" height="60" as="geometry" />
        </mxCell>
        <mxCell id="PVvdW4NzVCBOMxm0uCjy-10" value="yes" style="text;html=1;align=center;verticalAlign=middle;resizable=0;points=[];autosize=1;strokeColor=none;fillColor=none;" vertex="1" parent="1">
          <mxGeometry x="761" y="428" width="40" height="30" as="geometry" />
        </mxCell>
        <mxCell id="PVvdW4NzVCBOMxm0uCjy-11" value="fin" style="ellipse;whiteSpace=wrap;html=1;" vertex="1" parent="1">
          <mxGeometry x="1000" y="480" width="120" height="80" as="geometry" />
        </mxCell>
        <mxCell id="PVvdW4NzVCBOMxm0uCjy-16" style="edgeStyle=orthogonalEdgeStyle;rounded=0;orthogonalLoop=1;jettySize=auto;html=1;entryX=0;entryY=0.5;entryDx=0;entryDy=0;" edge="1" parent="1" source="PVvdW4NzVCBOMxm0uCjy-13" target="PVvdW4NzVCBOMxm0uCjy-15">
          <mxGeometry relative="1" as="geometry" />
        </mxCell>
        <mxCell id="PVvdW4NzVCBOMxm0uCjy-13" value="es &amp;lt; 10 ? " style="rhombus;whiteSpace=wrap;html=1;" vertex="1" parent="1">
          <mxGeometry x="325" y="620" width="130" height="130" as="geometry" />
        </mxCell>
        <mxCell id="PVvdW4NzVCBOMxm0uCjy-19" value="" style="edgeStyle=orthogonalEdgeStyle;rounded=0;orthogonalLoop=1;jettySize=auto;html=1;" edge="1" parent="1" source="PVvdW4NzVCBOMxm0uCjy-15" target="PVvdW4NzVCBOMxm0uCjy-18">
          <mxGeometry relative="1" as="geometry" />
        </mxCell>
        <mxCell id="PVvdW4NzVCBOMxm0uCjy-15" value="el numero esta dentro del rango 1-10?" style="rhombus;whiteSpace=wrap;html=1;" vertex="1" parent="1">
          <mxGeometry x="610" y="625" width="130" height="120" as="geometry" />
        </mxCell>
        <mxCell id="PVvdW4NzVCBOMxm0uCjy-17" value="no" style="text;html=1;align=center;verticalAlign=middle;resizable=0;points=[];autosize=1;strokeColor=none;fillColor=none;" vertex="1" parent="1">
          <mxGeometry x="511" y="658" width="40" height="30" as="geometry" />
        </mxCell>
        <mxCell id="PVvdW4NzVCBOMxm0uCjy-18" value="no esta en el rango" style="rounded=0;whiteSpace=wrap;html=1;" vertex="1" parent="1">
          <mxGeometry x="827" y="655" width="120" height="60" as="geometry" />
        </mxCell>
        <mxCell id="PVvdW4NzVCBOMxm0uCjy-20" style="edgeStyle=orthogonalEdgeStyle;rounded=0;orthogonalLoop=1;jettySize=auto;html=1;entryX=0.442;entryY=1.013;entryDx=0;entryDy=0;entryPerimeter=0;" edge="1" parent="1" source="PVvdW4NzVCBOMxm0uCjy-18" target="PVvdW4NzVCBOMxm0uCjy-11">
          <mxGeometry relative="1" as="geometry" />
        </mxCell>
      </root>
    </mxGraphModel>
  </diagram>
</mxfile>
